<svg xmlns="http://www.w3.org/2000/svg" xmlns:xlink="http://www.w3.org/1999/xlink" width="500" zoomAndPan="magnify" viewBox="0 0 375 374.999991" height="500" preserveAspectRatio="xMidYMid meet" version="1.0"><defs><g/><clipPath id="233ed3895e"><path d="M 213.828125 133.863281 L 326.328125 133.863281 L 326.328125 246.363281 L 213.828125 246.363281 Z M 213.828125 133.863281 " clip-rule="nonzero"/></clipPath><clipPath id="ab3a3fbc0a"><path d="M 187.5 205.332031 L 300 205.332031 L 300 317.832031 L 187.5 317.832031 Z M 187.5 205.332031 " clip-rule="nonzero"/></clipPath></defs><rect x="-37.5" width="450" fill="#ffffff" y="-37.499999" height="449.999989" fill-opacity="1"/><rect x="-37.5" width="450" fill="#000000" y="-37.499999" height="449.999989" fill-opacity="1"/><g fill="#ffffff" fill-opacity="1"><g transform="translate(194.996761, 223.999137)"><g><path d="M 101.96875 -76.5625 L 7.453125 -5.59375 L -3.515625 -20.203125 L -8.796875 -184.84375 L -10.953125 -186.328125 L -83.15625 -132.125 L -93.203125 -145.5 L -2.0625 -213.921875 L 8.84375 -199.40625 L 14.28125 -34.765625 L 16.34375 -33.1875 L 91.921875 -89.9375 Z M 101.96875 -76.5625 "/></g></g></g><g clip-path="url(#233ed3895e)"><path fill="#000000" d="M 213.828125 133.863281 L 326.328125 133.863281 L 326.328125 246.363281 L 213.828125 246.363281 Z M 213.828125 133.863281 " fill-opacity="1" fill-rule="nonzero"/></g><g fill="#ffffff" fill-opacity="1"><g transform="translate(224.127733, 159.167531)"><g><path d="M 24 -37.515625 L 13.5 -21.09375 L -126.046875 -110.359375 L -115.546875 -126.78125 Z M 24 -37.515625 "/></g></g></g><g fill="#ffffff" fill-opacity="1"><g transform="translate(182.351462, 238.680305)"><g><path d="M 58.265625 1.625 C 44.398438 1.625 33.914062 -1.890625 26.8125 -8.921875 C 19.707031 -15.953125 16.15625 -26.375 16.15625 -40.1875 L 16.15625 -112.96875 L 29.359375 -112.96875 L 29.359375 -40.328125 C 29.359375 -30.441406 31.738281 -23.023438 36.5 -18.078125 C 41.269531 -13.128906 48.523438 -10.65625 58.265625 -10.65625 C 77.523438 -10.65625 87.15625 -20.546875 87.15625 -40.328125 L 87.15625 -112.96875 L 100.375 -112.96875 L 100.375 -40.1875 C 100.375 -26.375 96.816406 -15.953125 89.703125 -8.921875 C 82.597656 -1.890625 72.117188 1.625 58.265625 1.625 Z M 58.265625 1.625 "/></g></g></g><g clip-path="url(#ab3a3fbc0a)"><path fill="#000000" d="M 187.5 205.332031 L 300 205.332031 L 300 317.832031 L 187.5 317.832031 Z M 187.5 205.332031 " fill-opacity="1" fill-rule="nonzero"/></g><g fill="#0cc0df" fill-opacity="1"><g transform="translate(84.414359, 111.983593)"><g><path d="M 16.125 0.59375 C 13.84375 0.59375 12.039062 -0.0390625 10.71875 -1.3125 C 9.40625 -2.59375 8.75 -4.289062 8.75 -6.40625 C 8.75 -8.488281 9.40625 -10.195312 10.71875 -11.53125 C 12.039062 -12.875 13.84375 -13.546875 16.125 -13.546875 C 18.4375 -13.546875 20.25 -12.90625 21.5625 -11.625 C 22.882812 -10.34375 23.546875 -8.644531 23.546875 -6.53125 C 23.546875 -4.414062 22.875 -2.695312 21.53125 -1.375 C 20.195312 -0.0625 18.394531 0.59375 16.125 0.59375 Z M 16.125 0.59375 "/></g></g></g><g fill="#ffffff" fill-opacity="1"><g transform="translate(171.324991, 211.005914)"><g><path d="M 39.96875 -148.703125 L 39.96875 -14.4375 L 111.578125 -14.4375 L 111.578125 0 L 22.484375 0 L 22.484375 -148.703125 Z M 39.96875 -148.703125 "/></g></g></g><g fill="#ffffff" fill-opacity="0.4"><g transform="translate(51.914598, 291.429458)"><g><path d="M 49.265625 -55.8125 L 49.265625 -43.90625 L 18.96875 -11.90625 L 49.265625 -11.90625 L 49.265625 0.078125 L 2.546875 0 L 2.546875 -11.90625 L 32.84375 -43.90625 L 2.546875 -43.90625 L 2.546875 -55.8125 Z M 49.265625 -55.8125 "/></g></g></g><g fill="#ffffff" fill-opacity="0.4"><g transform="translate(103.720052, 291.429458)"><g><path d="M 45 0 L 41 -7.734375 L 20.15625 -7.734375 L 16.171875 0 L 0.84375 0 L 30.625 -55.296875 L 60.328125 0 Z M 35.640625 -18.125 L 30.625 -27.828125 L 25.53125 -18.125 Z M 35.640625 -18.125 "/></g></g></g><g fill="#ffffff" fill-opacity="0.4"><g transform="translate(164.882814, 291.429458)"><g><path d="M 1.28125 -55.296875 L 14.546875 -55.296875 L 14.546875 0 L 1.28125 0 Z M 1.28125 -55.296875 "/></g></g></g><g fill="#ffffff" fill-opacity="1"><g transform="translate(48.15489, 287.669746)"><g><path d="M 49.265625 -55.8125 L 49.265625 -43.90625 L 18.96875 -11.90625 L 49.265625 -11.90625 L 49.265625 0.078125 L 2.546875 0 L 2.546875 -11.90625 L 32.84375 -43.90625 L 2.546875 -43.90625 L 2.546875 -55.8125 Z M 49.265625 -55.8125 "/></g></g></g><g fill="#ffffff" fill-opacity="1"><g transform="translate(99.960345, 287.669746)"><g><path d="M 45 0 L 41 -7.734375 L 20.15625 -7.734375 L 16.171875 0 L 0.84375 0 L 30.625 -55.296875 L 60.328125 0 Z M 35.640625 -18.125 L 30.625 -27.828125 L 25.53125 -18.125 Z M 35.640625 -18.125 "/></g></g></g><g fill="#ffffff" fill-opacity="1"><g transform="translate(161.123106, 287.669746)"><g><path d="M 1.28125 -55.296875 L 14.546875 -55.296875 L 14.546875 0 L 1.28125 0 Z M 1.28125 -55.296875 "/></g></g></g><g fill="#ffffff" fill-opacity="1"><g transform="translate(59.769269, 332.066522)"><g><path d="M 13.734375 0.359375 C 11.554688 0.359375 9.617188 -0.140625 7.921875 -1.140625 C 6.222656 -2.140625 4.890625 -3.597656 3.921875 -5.515625 C 2.960938 -7.429688 2.484375 -9.734375 2.484375 -12.421875 C 2.484375 -15.109375 2.960938 -17.410156 3.921875 -19.328125 C 4.890625 -21.253906 6.222656 -22.710938 7.921875 -23.703125 C 9.617188 -24.703125 11.554688 -25.203125 13.734375 -25.203125 C 16.054688 -25.203125 17.988281 -24.765625 19.53125 -23.890625 C 21.070312 -23.015625 22.179688 -21.691406 22.859375 -19.921875 L 21 -18.6875 L 20.5625 -18.6875 C 19.882812 -20.101562 19 -21.109375 17.90625 -21.703125 C 16.820312 -22.296875 15.429688 -22.59375 13.734375 -22.59375 C 12.171875 -22.59375 10.78125 -22.242188 9.5625 -21.546875 C 8.351562 -20.847656 7.390625 -19.742188 6.671875 -18.234375 C 5.960938 -16.722656 5.609375 -14.785156 5.609375 -12.421875 C 5.609375 -10.066406 5.960938 -8.132812 6.671875 -6.625 C 7.390625 -5.125 8.351562 -4.023438 9.5625 -3.328125 C 10.78125 -2.628906 12.171875 -2.28125 13.734375 -2.28125 C 15.535156 -2.28125 17.007812 -2.679688 18.15625 -3.484375 C 19.300781 -4.296875 20.148438 -5.609375 20.703125 -7.421875 L 21.125 -7.421875 L 23.078125 -6.453125 C 22.492188 -4.253906 21.40625 -2.566406 19.8125 -1.390625 C 18.21875 -0.222656 16.191406 0.359375 13.734375 0.359375 Z M 13.734375 0.359375 "/></g></g></g><g fill="#ffffff" fill-opacity="1"><g transform="translate(84.139347, 332.066522)"><g><path d="M 13.625 0.359375 C 11.476562 0.359375 9.566406 -0.101562 7.890625 -1.03125 C 6.210938 -1.96875 4.890625 -3.390625 3.921875 -5.296875 C 2.960938 -7.203125 2.484375 -9.578125 2.484375 -12.421875 C 2.484375 -15.265625 2.960938 -17.640625 3.921875 -19.546875 C 4.890625 -21.460938 6.210938 -22.882812 7.890625 -23.8125 C 9.566406 -24.738281 11.476562 -25.203125 13.625 -25.203125 C 15.78125 -25.203125 17.695312 -24.738281 19.375 -23.8125 C 21.050781 -22.882812 22.367188 -21.460938 23.328125 -19.546875 C 24.296875 -17.640625 24.78125 -15.265625 24.78125 -12.421875 C 24.78125 -9.578125 24.296875 -7.203125 23.328125 -5.296875 C 22.367188 -3.390625 21.050781 -1.96875 19.375 -1.03125 C 17.695312 -0.101562 15.78125 0.359375 13.625 0.359375 Z M 13.625 -2.34375 C 16.21875 -2.34375 18.203125 -3.148438 19.578125 -4.765625 C 20.960938 -6.378906 21.65625 -8.929688 21.65625 -12.421875 C 21.65625 -15.910156 20.960938 -18.460938 19.578125 -20.078125 C 18.203125 -21.691406 16.21875 -22.5 13.625 -22.5 C 8.28125 -22.5 5.609375 -19.140625 5.609375 -12.421875 C 5.609375 -5.703125 8.28125 -2.34375 13.625 -2.34375 Z M 13.625 -2.34375 "/></g></g></g><g fill="#ffffff" fill-opacity="1"><g transform="translate(111.398485, 332.066522)"><g><path d="M 3.75 0 L 3.75 -24.84375 L 12.78125 -24.84375 C 14.445312 -24.84375 15.847656 -24.566406 16.984375 -24.015625 C 18.117188 -23.472656 18.96875 -22.695312 19.53125 -21.6875 C 20.09375 -20.6875 20.375 -19.503906 20.375 -18.140625 C 20.375 -16.597656 19.988281 -15.320312 19.21875 -14.3125 C 18.445312 -13.3125 17.25 -12.5625 15.625 -12.0625 L 15.625 -11.71875 C 16.425781 -11.394531 17.082031 -10.894531 17.59375 -10.21875 C 18.101562 -9.539062 18.570312 -8.523438 19 -7.171875 L 21.296875 0 L 18.296875 0 L 15.8125 -7.59375 C 15.507812 -8.488281 15.164062 -9.191406 14.78125 -9.703125 C 14.394531 -10.210938 13.90625 -10.582031 13.3125 -10.8125 C 12.726562 -11.039062 11.984375 -11.15625 11.078125 -11.15625 L 6.6875 -11.15625 L 6.6875 0 Z M 12.71875 -13.625 C 14.269531 -13.625 15.425781 -13.984375 16.1875 -14.703125 C 16.945312 -15.429688 17.328125 -16.53125 17.328125 -18 C 17.328125 -19.476562 16.945312 -20.578125 16.1875 -21.296875 C 15.425781 -22.015625 14.269531 -22.375 12.71875 -22.375 L 6.6875 -22.375 L 6.6875 -13.625 Z M 12.71875 -13.625 "/></g></g></g><g fill="#ffffff" fill-opacity="1"><g transform="translate(134.409005, 332.066522)"><g><path d="M 12.640625 -24.84375 C 14.359375 -24.84375 15.828125 -24.535156 17.046875 -23.921875 C 18.273438 -23.316406 19.207031 -22.441406 19.84375 -21.296875 C 20.488281 -20.160156 20.8125 -18.820312 20.8125 -17.28125 C 20.8125 -15.738281 20.488281 -14.398438 19.84375 -13.265625 C 19.207031 -12.140625 18.273438 -11.265625 17.046875 -10.640625 C 15.828125 -10.023438 14.359375 -9.71875 12.640625 -9.71875 L 6.6875 -9.71875 L 6.6875 0 L 3.75 0 L 3.75 -24.84375 Z M 12.5625 -12.21875 C 16.019531 -12.21875 17.75 -13.90625 17.75 -17.28125 C 17.75 -20.675781 16.019531 -22.375 12.5625 -22.375 L 6.6875 -22.375 L 6.6875 -12.21875 Z M 12.5625 -12.21875 "/></g></g></g><g fill="#ffffff" fill-opacity="1"><g transform="translate(157.06264, 332.066522)"><g><path d="M 13.625 0.359375 C 11.476562 0.359375 9.566406 -0.101562 7.890625 -1.03125 C 6.210938 -1.96875 4.890625 -3.390625 3.921875 -5.296875 C 2.960938 -7.203125 2.484375 -9.578125 2.484375 -12.421875 C 2.484375 -15.265625 2.960938 -17.640625 3.921875 -19.546875 C 4.890625 -21.460938 6.210938 -22.882812 7.890625 -23.8125 C 9.566406 -24.738281 11.476562 -25.203125 13.625 -25.203125 C 15.78125 -25.203125 17.695312 -24.738281 19.375 -23.8125 C 21.050781 -22.882812 22.367188 -21.460938 23.328125 -19.546875 C 24.296875 -17.640625 24.78125 -15.265625 24.78125 -12.421875 C 24.78125 -9.578125 24.296875 -7.203125 23.328125 -5.296875 C 22.367188 -3.390625 21.050781 -1.96875 19.375 -1.03125 C 17.695312 -0.101562 15.78125 0.359375 13.625 0.359375 Z M 13.625 -2.34375 C 16.21875 -2.34375 18.203125 -3.148438 19.578125 -4.765625 C 20.960938 -6.378906 21.65625 -8.929688 21.65625 -12.421875 C 21.65625 -15.910156 20.960938 -18.460938 19.578125 -20.078125 C 18.203125 -21.691406 16.21875 -22.5 13.625 -22.5 C 8.28125 -22.5 5.609375 -19.140625 5.609375 -12.421875 C 5.609375 -5.703125 8.28125 -2.34375 13.625 -2.34375 Z M 13.625 -2.34375 "/></g></g></g><g fill="#ffffff" fill-opacity="1"><g transform="translate(184.321778, 332.066522)"><g><path d="M 3.75 0 L 3.75 -24.84375 L 12.78125 -24.84375 C 14.445312 -24.84375 15.847656 -24.566406 16.984375 -24.015625 C 18.117188 -23.472656 18.96875 -22.695312 19.53125 -21.6875 C 20.09375 -20.6875 20.375 -19.503906 20.375 -18.140625 C 20.375 -16.597656 19.988281 -15.320312 19.21875 -14.3125 C 18.445312 -13.3125 17.25 -12.5625 15.625 -12.0625 L 15.625 -11.71875 C 16.425781 -11.394531 17.082031 -10.894531 17.59375 -10.21875 C 18.101562 -9.539062 18.570312 -8.523438 19 -7.171875 L 21.296875 0 L 18.296875 0 L 15.8125 -7.59375 C 15.507812 -8.488281 15.164062 -9.191406 14.78125 -9.703125 C 14.394531 -10.210938 13.90625 -10.582031 13.3125 -10.8125 C 12.726562 -11.039062 11.984375 -11.15625 11.078125 -11.15625 L 6.6875 -11.15625 L 6.6875 0 Z M 12.71875 -13.625 C 14.269531 -13.625 15.425781 -13.984375 16.1875 -14.703125 C 16.945312 -15.429688 17.328125 -16.53125 17.328125 -18 C 17.328125 -19.476562 16.945312 -20.578125 16.1875 -21.296875 C 15.425781 -22.015625 14.269531 -22.375 12.71875 -22.375 L 6.6875 -22.375 L 6.6875 -13.625 Z M 12.71875 -13.625 "/></g></g></g><g fill="#ffffff" fill-opacity="1"><g transform="translate(207.332298, 332.066522)"><g><path d="M 22.375 0 L 19.234375 0 L 16.953125 -6.8125 L 6.359375 -6.8125 L 4.046875 0 L 0.984375 0 L 9.65625 -24.84375 L 13.703125 -24.84375 Z M 11.4375 -21.84375 L 7.171875 -9.265625 L 16.109375 -9.265625 L 11.859375 -21.84375 Z M 11.4375 -21.84375 "/></g></g></g><g fill="#ffffff" fill-opacity="1"><g transform="translate(230.682707, 332.066522)"><g><path d="M 19.390625 -24.84375 L 19.390625 -22.375 L 11.609375 -22.375 L 11.609375 0 L 8.703125 0 L 8.703125 -22.375 L 0.921875 -22.375 L 0.921875 -24.84375 Z M 19.390625 -24.84375 "/></g></g></g><g fill="#ffffff" fill-opacity="1"><g transform="translate(250.974111, 332.066522)"><g><path d="M 6.6875 0 L 3.75 0 L 3.75 -24.84375 L 6.6875 -24.84375 Z M 6.6875 0 "/></g></g></g><g fill="#ffffff" fill-opacity="1"><g transform="translate(261.425713, 332.066522)"><g><path d="M 13.625 0.359375 C 11.476562 0.359375 9.566406 -0.101562 7.890625 -1.03125 C 6.210938 -1.96875 4.890625 -3.390625 3.921875 -5.296875 C 2.960938 -7.203125 2.484375 -9.578125 2.484375 -12.421875 C 2.484375 -15.265625 2.960938 -17.640625 3.921875 -19.546875 C 4.890625 -21.460938 6.210938 -22.882812 7.890625 -23.8125 C 9.566406 -24.738281 11.476562 -25.203125 13.625 -25.203125 C 15.78125 -25.203125 17.695312 -24.738281 19.375 -23.8125 C 21.050781 -22.882812 22.367188 -21.460938 23.328125 -19.546875 C 24.296875 -17.640625 24.78125 -15.265625 24.78125 -12.421875 C 24.78125 -9.578125 24.296875 -7.203125 23.328125 -5.296875 C 22.367188 -3.390625 21.050781 -1.96875 19.375 -1.03125 C 17.695312 -0.101562 15.78125 0.359375 13.625 0.359375 Z M 13.625 -2.34375 C 16.21875 -2.34375 18.203125 -3.148438 19.578125 -4.765625 C 20.960938 -6.378906 21.65625 -8.929688 21.65625 -12.421875 C 21.65625 -15.910156 20.960938 -18.460938 19.578125 -20.078125 C 18.203125 -21.691406 16.21875 -22.5 13.625 -22.5 C 8.28125 -22.5 5.609375 -19.140625 5.609375 -12.421875 C 5.609375 -5.703125 8.28125 -2.34375 13.625 -2.34375 Z M 13.625 -2.34375 "/></g></g></g><g fill="#ffffff" fill-opacity="1"><g transform="translate(288.684851, 332.066522)"><g><path d="M 6.609375 0 L 3.75 0 L 3.75 -24.84375 L 7.34375 -24.84375 L 19.46875 -5.859375 L 19.890625 -5.9375 L 19.890625 -24.84375 L 22.734375 -24.84375 L 22.734375 0 L 19.671875 0 L 7.03125 -20.3125 L 6.609375 -20.25 Z M 6.609375 0 "/></g></g></g><g fill="#a6a6a6" fill-opacity="0.4"><g transform="translate(193.525187, 291.433457)"><g><path d="M 38.71875 -55.3125 L 52 -55.3125 L 52 0 L 15.3125 -26.96875 L 15.3125 0 L 2.046875 0 L 2.046875 -55.3125 L 38.71875 -27.0625 Z M 38.71875 -55.3125 "/></g></g></g><g fill="#a6a6a6" fill-opacity="0.4"><g transform="translate(247.55725, 291.433457)"><g><path d="M 37.53125 -55.3125 L 49.859375 -55.3125 L 49.859375 -23.40625 C 49.859375 -16.476562 47.25 -10.71875 42.03125 -6.125 C 37.320312 -2.039062 32.019531 0 26.125 0 C 20.445312 0 15.285156 -1.984375 10.640625 -5.953125 C 5.242188 -10.492188 2.546875 -16.367188 2.546875 -23.578125 L 2.546875 -55.3125 L 14.890625 -55.3125 L 14.890625 -23.578125 C 14.890625 -20.171875 16.109375 -17.445312 18.546875 -15.40625 C 19.679688 -14.382812 21.015625 -13.617188 22.546875 -13.109375 C 23.847656 -12.597656 25.039062 -12.34375 26.125 -12.34375 C 27.144531 -12.34375 28.421875 -12.597656 29.953125 -13.109375 C 31.648438 -13.785156 32.984375 -14.578125 33.953125 -15.484375 C 35.203125 -16.617188 36.082031 -17.753906 36.59375 -18.890625 C 37.21875 -20.140625 37.53125 -21.644531 37.53125 -23.40625 Z M 37.53125 -55.3125 "/></g></g></g><g fill="#a6a6a6" fill-opacity="0.4"><g transform="translate(299.972606, 291.433457)"><g><path d="M 15.828125 -11.90625 L 42.46875 -11.90625 L 42.46875 0 L 2.546875 0 L 2.546875 -55.3125 L 15.828125 -55.3125 Z M 15.828125 -11.90625 "/></g></g></g><g fill="#0cc0df" fill-opacity="1"><g transform="translate(189.764246, 287.672516)"><g><path d="M 38.71875 -55.3125 L 52 -55.3125 L 52 0 L 15.3125 -26.96875 L 15.3125 0 L 2.046875 0 L 2.046875 -55.3125 L 38.71875 -27.0625 Z M 38.71875 -55.3125 "/></g></g></g><g fill="#0cc0df" fill-opacity="1"><g transform="translate(243.796308, 287.672516)"><g><path d="M 37.53125 -55.3125 L 49.859375 -55.3125 L 49.859375 -23.40625 C 49.859375 -16.476562 47.25 -10.71875 42.03125 -6.125 C 37.320312 -2.039062 32.019531 0 26.125 0 C 20.445312 0 15.285156 -1.984375 10.640625 -5.953125 C 5.242188 -10.492188 2.546875 -16.367188 2.546875 -23.578125 L 2.546875 -55.3125 L 14.890625 -55.3125 L 14.890625 -23.578125 C 14.890625 -20.171875 16.109375 -17.445312 18.546875 -15.40625 C 19.679688 -14.382812 21.015625 -13.617188 22.546875 -13.109375 C 23.847656 -12.597656 25.039062 -12.34375 26.125 -12.34375 C 27.144531 -12.34375 28.421875 -12.597656 29.953125 -13.109375 C 31.648438 -13.785156 32.984375 -14.578125 33.953125 -15.484375 C 35.203125 -16.617188 36.082031 -17.753906 36.59375 -18.890625 C 37.21875 -20.140625 37.53125 -21.644531 37.53125 -23.40625 Z M 37.53125 -55.3125 "/></g></g></g><g fill="#0cc0df" fill-opacity="1"><g transform="translate(296.211664, 287.672516)"><g><path d="M 15.828125 -11.90625 L 42.46875 -11.90625 L 42.46875 0 L 2.546875 0 L 2.546875 -55.3125 L 15.828125 -55.3125 Z M 15.828125 -11.90625 "/></g></g></g></svg>